<svg width="100" height="40" viewBox="0 0 100 40" fill="none" xmlns="http://www.w3.org/2000/svg">
  <rect x="2" y="0" width="96" height="2" fill="#000"/> <rect x="2" y="38" width="96" height="2" fill="#000"/> <rect x="0" y="2" width="2" height="36" fill="#000"/> <rect x="98" y="2" width="2" height="36" fill="#000"/> <rect x="0" y="0" width="2" height="2" fill="#000"/>   <rect x="2" y="0" width="1" height="1" fill="#000"/>   <rect x="0" y="2" width="1" height="1" fill="#000"/>   <rect x="3" y="0" width="1" height="1" fill="#000"/>   <rect x="0" y="3" width="1" height="1" fill="#000"/>   <rect x="98" y="0" width="2" height="2" fill="#000"/>
  <rect x="97" y="0" width="1" height="1" fill="#000"/>
  <rect x="99" y="2" width="1" height="1" fill="#000"/>
  <rect x="96" y="0" width="1" height="1" fill="#000"/>
  <rect x="99" y="3" width="1" height="1" fill="#000"/>

  <rect x="0" y="38" width="2" height="2" fill="#000"/>
  <rect x="2" y="39" width="1" height="1" fill="#000"/>
  <rect x="0" y="37" width="1" height="1" fill="#000"/>
  <rect x="3" y="39" width="1" height="1" fill="#000"/>
  <rect x="0" y="36" width="1" height="1" fill="#000"/>

  <rect x="98" y="38" width="2" height="2" fill="#000"/>
  <rect x="97" y="39" width="1" height="1" fill="#000"/>
  <rect x="99" y="37" width="1" height="1" fill="#000"/>
  <rect x="96" y="39" width="1" height="1" fill="#000"/>
  <rect x="99" y="36" width="1" height="1" fill="#000"/>
</svg>